<svg id="Layer_1" data-name="Layer 1" xmlns="http://www.w3.org/2000/svg" viewBox="0 0 512 512"><defs><style>.cls-1{fill:#39a935;}.cls-2{fill:#fff;}.cls-3{fill:#3faa35;}</style></defs><title>logo_Service_web</title><path class="cls-1" d="M337.89,439.07l-.68.15q-13.47,2.52-26.47,4c-78,8.74-149.33-9.85-211.93-55.26-47.7-34.6-66.75-80-58.24-138.76C55.7,144.82,123.88,91.2,184.74,84.42a147.6,147.6,0,0,1,15.46-.9c16.41-.1,33.06-1,49.15-2,17.8-1,36.1-2,54.43-2,93.36.21,143.05,50.68,161.1,163.67h0c17.51,109.65-20.42,168.2-126.83,195.8ZM174.51,104.32C123.91,115.83,71.05,164,58.33,251.74c-7.47,51.55,9.22,91.35,51,121.67,58.85,42.69,125.94,60.18,199.39,51.95,8.22-.92,16.62-2.17,25-3.74C431.44,396.28,463.29,347,447.17,246.07,430.34,140.73,388.78,97.69,303.75,97.51c-17.82,0-35.85,1-53.28,2-16.42.93-33.3,1.89-50.16,2a130.58,130.58,0,0,0-13.58.79A110.22,110.22,0,0,0,174.51,104.32ZM456,244.65l.06,0Z"/><path class="cls-1" d="M338.85,270.11c9.2-53-14.39-97-63.08-117.74a105.1,105.1,0,0,0-14-4.5c-2.15-.58-4.36-1.18-6.66-1.88l-.84-.18a123.9,123.9,0,0,0-31.12-.58c-29.45,3.3-55.64,17.94-78.16,43.77-18.21,20.88-26.89,42.56-25.79,64.42,1.13,22.45,12.52,44.22,33.85,64.71,23.36,22.42,49.86,37.59,78.78,45.06a72.59,72.59,0,0,0,26.4,2,73.68,73.68,0,0,0,34.46-13.46C315.87,335.38,332.69,305.63,338.85,270.11Z"/><path class="cls-1" d="M462.94,414.51a50.49,50.49,0,0,1-61.51-53.09,9.79,9.79,0,0,0-5.33-9.48L278.68,292.12a1.17,1.17,0,0,0-.82-.09,1.5,1.5,0,0,0-.83.53,70.9,70.9,0,0,1-46.7,25.16l-.08,0a1.57,1.57,0,0,0-1.41,1.29l-8.1,41.05A42.78,42.78,0,1,1,189.26,355c.67-.15,1.34-.29,2-.41l7.35-39.2a1.54,1.54,0,0,0-1-1.72,71.3,71.3,0,0,1-42-42,1.41,1.41,0,0,0-1.52-.81L90,280.21c-2.48,16.41-15.38,30.07-31.82,33.8a39.85,39.85,0,0,1-4.52.77A41.85,41.85,0,0,1,39.2,232.5l.91-.2A42,42,0,0,1,87.5,256.93L150,247.52a1.43,1.43,0,0,0,1.23-1.38A71.14,71.14,0,0,1,273.1,197.06a1.59,1.59,0,0,0,1.47.49l60.66-34.85a9.91,9.91,0,0,0,4.71-10.82,70.7,70.7,0,0,1-1.66-13.51c-.88-32.57,22.54-62.62,54.48-69.88l1.54-.33a69.83,69.83,0,0,1,29.16,136.57h0c-1.22.27-2.46.52-3.7.73a70,70,0,0,1-55.26-14.34,9.91,9.91,0,0,0-11.07-.83l-61.87,35.61a1.52,1.52,0,0,0-.64,1.73,69.68,69.68,0,0,1,2.24,11.42,70.47,70.47,0,0,1-1.8,25.59,1.49,1.49,0,0,0,.72,1.75l118.07,60.14a9.82,9.82,0,0,0,6.65.83,9.55,9.55,0,0,0,3.8-1.81,49.73,49.73,0,0,1,20-9.54,51.42,51.42,0,0,1,8.77-1.21,50.5,50.5,0,0,1,13.63,99.7ZM447,344.29a21.82,21.82,0,0,0-16.71,21.14,21.53,21.53,0,0,0,26.1,20.84h0a21.51,21.51,0,0,0-9.18-42l-1-3.46ZM195.36,383.36a13.8,13.8,0,0,0-5.27,24.2,14.15,14.15,0,0,0,11.72,2.68,14,14,0,0,0,10.73-13.18,13.87,13.87,0,0,0-17-13.75l-1-3.44Zm21.48-160.62a24.87,24.87,0,0,0,10.35,48.64l.72-.15a24.87,24.87,0,0,0-10.28-48.66ZM44.56,254.2a20.11,20.11,0,1,0,.24,0l-1-3.45ZM398.89,96.83a40.53,40.53,0,1,0,.26-.06l-1-3.44Z"/><path class="cls-2" d="M463.32,416.19a52.19,52.19,0,0,1-63.6-54.9,8,8,0,0,0-4.39-7.82L278.22,293.81a72.3,72.3,0,0,1-47.71,25.61l-7.86,39.83A44.13,44.13,0,0,1,243,391.81a44.53,44.53,0,1,1-53.15-38.67L197,315.08a72.17,72.17,0,0,1-42.79-42.52l-62.72,9.16a43.26,43.26,0,0,1-32.92,34,41.73,41.73,0,0,1-4.71.8,43.56,43.56,0,0,1-15-85.65l.91-.2A43.66,43.66,0,0,1,88.54,255l61-9.18a72.61,72.61,0,0,1,56.67-70,75.6,75.6,0,0,1,8.1-1.36,72.44,72.44,0,0,1,59.93,21.24l60.15-34.56a8.2,8.2,0,0,0,3.89-9,72.26,72.26,0,0,1-1.71-13.84c-.9-33.37,23.1-64.15,55.82-71.59l1.55-.34a71.55,71.55,0,0,1,29.91,139.93q-1.89.42-3.81.75a71.67,71.67,0,0,1-56.61-14.7,8.3,8.3,0,0,0-9.15-.67L292.41,227.4a53.79,53.79,0,0,1,2.44,11.47A72.33,72.33,0,0,1,293,265.08L410.92,325a8.13,8.13,0,0,0,8.61-.81,52.21,52.21,0,1,1,43.79,92ZM277.48,290.36a3,3,0,0,1,2,.23l117.43,59.83a11.49,11.49,0,0,1,6.26,11.13,48.83,48.83,0,1,0,18.51-34.65,11.61,11.61,0,0,1-12.29,1.17L291.29,267.92a3.19,3.19,0,0,1-1.6-3.7,69.07,69.07,0,0,0-.43-36.11,3.23,3.23,0,0,1,1.43-3.68l61.87-35.61a11.79,11.79,0,0,1,13,1,68.21,68.21,0,0,0,53.89,14c33.2-5.7,57.46-35.15,56.75-68.47a68.21,68.21,0,0,0-81.58-65.47l-1.51.33c-31.14,7.08-54,36.38-53.13,68.15a68.56,68.56,0,0,0,1.62,13.18,11.61,11.61,0,0,1-5.52,12.68l-61.14,35a3.24,3.24,0,0,1-3.07-1,69.1,69.1,0,0,0-57.19-20.32,71.21,71.21,0,0,0-7.73,1.3,69.2,69.2,0,0,0-54,66.93,3.13,3.13,0,0,1-2.54,3l-64,9.64-.52-1.23A40.23,40.23,0,0,0,40.47,234l-.9.2a40.14,40.14,0,0,0,13.86,78.91A39.93,39.93,0,0,0,88.27,280l.19-1.25,65.41-9.56a3.11,3.11,0,0,1,3.38,1.91,69.56,69.56,0,0,0,40.93,41,3.22,3.22,0,0,1,2.14,3.66l-7.57,40.34-1.17.21a41.09,41.09,0,1,0,48,35.91,40.77,40.77,0,0,0-19.7-30.64l-1-.62,8.33-42.23a3.3,3.3,0,0,1,2.7-2.63,79.11,79.11,0,0,0,8.06-1.36,68.75,68.75,0,0,0,37.79-23.25A3.22,3.22,0,0,1,277.48,290.36Zm179.29,97.58a23.24,23.24,0,0,1-28.19-22.49A23.6,23.6,0,0,1,445,343.07l-.43-1.9,3.32-.86.57,2a23.22,23.22,0,0,1,8.35,45.65Zm-9.39-42A20.06,20.06,0,0,0,432,365.41a19.82,19.82,0,0,0,24,19.19,20,20,0,0,0,15.55-19.5,19.81,19.81,0,0,0-24-19.18ZM202.21,411.9a15.86,15.86,0,0,1-13.19-3,15.49,15.49,0,0,1-5.85-12.44,15.68,15.68,0,0,1,10.15-14.26l-.47-1.91,3.31-.91.6,2a15.53,15.53,0,0,1,5.45,30.53ZM195.75,385a12.08,12.08,0,0,0-4.59,21.19A12.11,12.11,0,0,0,210.83,397,12.16,12.16,0,0,0,196,385ZM228.29,272.9l-.75.16a26.58,26.58,0,0,1-11.08-52l.81-.18a26.59,26.59,0,0,1,11,52ZM217.2,224.41a23.16,23.16,0,0,0,9.66,45.29l.7-.15a23.16,23.16,0,0,0-9.61-45.3ZM53.49,293.92a21.22,21.22,0,0,1-11-40.94l-.43-1.9,3.31-.87.6,2A21.23,21.23,0,0,1,70.16,273,21.37,21.37,0,0,1,53.49,293.92Zm-8.56-38.05a18,18,0,1,0,.23-.05ZM417.4,178.14a42.55,42.55,0,0,1-20.55-82.56l-.42-1.87,3.3-.88.6,2a42.55,42.55,0,0,1,17.07,83.35ZM399.27,98.5a38.84,38.84,0,1,0,.26-.06Z"/><path class="cls-2" d="M417.8,180l.28-.06a44.43,44.43,0,0,0-19.7-86.64l-.28.06A44.43,44.43,0,0,0,417.8,180M53.87,295.76h0l.28-.07A23.09,23.09,0,0,0,44,250.64l-.28.06a23.09,23.09,0,0,0,10.11,45.06m174.84-21a28.81,28.81,0,0,0,22.14-28.61A28.45,28.45,0,0,0,217,219l-.91.2a28.46,28.46,0,0,0,11.83,55.67l.84-.18m-26.11,139,.3-.07h0a17.41,17.41,0,0,0-8.14-33.86l-.25.06a17.39,17.39,0,0,0-6.67,30.49,17.73,17.73,0,0,0,14.75,3.38m254.78-24a25.1,25.1,0,0,0-10.93-49l-.25.05a25.4,25.4,0,0,0-19.5,24.68,25.13,25.13,0,0,0,30.44,24.31l.24,0m-254.78,24-1.59-7a10.62,10.62,0,0,1-8.68-2,10.27,10.27,0,0,1-3.86-8.24,10.24,10.24,0,1,1,12.74,10.18l1.39,7Z"/><path class="cls-3" d="M413.27,165.06a28.28,28.28,0,1,1,21.48-33,28.23,28.23,0,0,1-21.48,33Z"/><path class="cls-2" d="M414.41,170.07h0a34.08,34.08,0,0,1-6.4.83,33.66,33.66,0,0,1-33.84-27A33.48,33.48,0,0,1,406,104.07a33.43,33.43,0,0,1,8.46,66Zm-12.58-55.15a23.15,23.15,0,0,0,5.83,45.71,23.78,23.78,0,0,0,4.47-.58,23.15,23.15,0,0,0-5.84-45.71A23.68,23.68,0,0,0,401.83,114.92Z"/><path class="cls-3" d="M401.28,105a32.08,32.08,0,0,1,6-.77A31.24,31.24,0,0,1,415.18,166a32,32,0,0,1-6,.77A31.24,31.24,0,0,1,401.28,105"/><path class="cls-2" d="M416.32,171a36.37,36.37,0,1,1,27.61-42.43A36.34,36.34,0,0,1,416.32,171Zm-13.9-60.91A26.1,26.1,0,0,0,409,161.58a26.33,26.33,0,0,0,5-.64,26.1,26.1,0,0,0-6.58-51.53A26.43,26.43,0,0,0,402.42,110.05Z"/><path class="cls-3" d="M196.78,387.08a10.06,10.06,0,0,1,1.85-.23A9.58,9.58,0,0,1,201,405.76a10.06,10.06,0,0,1-1.84.23,9.58,9.58,0,0,1-2.42-18.91"/></svg>