<svg id="Layer_1" data-name="Layer 1" xmlns="http://www.w3.org/2000/svg" xmlns:xlink="http://www.w3.org/1999/xlink" viewBox="0 0 512 512"><defs><style>.cls-1{fill:#09afa3;}.cls-2{clip-path:url(#clip-path);}.cls-3{fill:#39a935;}.cls-4{fill:#fff;}.cls-5{fill:#3faa35;}</style><clipPath id="clip-path"><path class="cls-1" d="M6.45,254.78c0,137.39,111.38,248.77,248.77,248.77S504,392.17,504,254.78,392.62,6,255.22,6,6.45,117.38,6.45,254.78"/></clipPath></defs><title>logo_Service_web</title><path class="cls-1" d="M6.45,254.78c0,137.39,111.38,248.77,248.77,248.77S504,392.17,504,254.78,392.62,6,255.22,6,6.45,117.38,6.45,254.78"/><g class="cls-2"><rect class="cls-3" x="6.45" y="6" width="497.55" height="497.55"/></g><path class="cls-4" d="M305.56,393.77l-.51.11c-6.68,1.18-13.26,2.09-19.69,2.74-58,5.9-110.82-8.45-157-42.64-35.16-26.06-49-59.91-42.2-103.49,12-77.38,63.07-116.69,108.32-121.26a107.28,107.28,0,0,1,11.49-.55c12.19,0,24.55-.52,36.51-1.08,13.23-.61,26.82-1.24,40.44-1.08,69.33.86,105.85,38.72,118.4,122.77h0c12.17,81.56-16.44,124.76-95.67,144.45ZM186.76,143.93c-37.67,8.16-77.29,43.51-87.39,108.6-6,38.23,6.15,67.91,37,90.74,43.38,32.16,93.08,45.65,147.68,40.1,6.12-.62,12.36-1.49,18.57-2.59,72.77-18.08,96.8-54.4,85.6-129.51-11.71-78.36-42.24-110.64-105.39-111.42-13.23-.16-26.63.46-39.58,1.06-12.2.56-24.74,1.14-37.27,1.09a96.83,96.83,0,0,0-10.09.49A81.25,81.25,0,0,0,186.76,143.93Zm208,106.35h0Z"/><path class="cls-4" d="M307.55,268.3c7.23-39.3-9.95-72.17-46-87.92a78.51,78.51,0,0,0-10.35-3.45c-1.59-.44-3.23-.91-4.93-1.44l-.62-.14a92.45,92.45,0,0,0-23.11-.67c-21.89,2.23-41.45,12.9-58.38,31.91C150.52,222,143.91,238,144.56,254.24c.67,16.68,9,32.94,24.65,48.31,17.18,16.83,36.75,28.29,58.16,34.07A54.12,54.12,0,0,0,247,338.3a54.76,54.76,0,0,0,25.7-9.74C290,316.6,302.71,294.63,307.55,268.3Z"/><path class="cls-3" d="M398.61,376.48a37.51,37.51,0,0,1-45.28-39.9,7.23,7.23,0,0,0-3.89-7.07L262.7,284.19a.93.93,0,0,0-.61-.08,1.18,1.18,0,0,0-.62.39,52.26,52.26,0,0,1-28.94,17.39,51.18,51.18,0,0,1-5.93.94l-.07,0a1.17,1.17,0,0,0-1.05.94l-6.33,30.43a31.79,31.79,0,0,1-10,58.16,31.38,31.38,0,0,1-7.09.72,31.81,31.81,0,0,1-6.3-62.89l1.51-.29,5.76-29.05a1.13,1.13,0,0,0-.77-1.28,53,53,0,0,1-30.83-31.54,1,1,0,0,0-1.12-.62l-47.72,6.48a31,31,0,0,1-23.89,24.87,33.79,33.79,0,0,1-3.37.53A31.08,31.08,0,0,1,85.31,238.1L86,238a31.16,31.16,0,0,1,35,18.64l46.49-6.51a1.06,1.06,0,0,0,.92-1A52.64,52.64,0,0,1,210,198.57a52,52,0,0,1,5.89-.93,52.57,52.57,0,0,1,43.37,15.91,1.16,1.16,0,0,0,1.08.38l45.32-25.43a7.34,7.34,0,0,0,3.57-8,53.24,53.24,0,0,1-1.13-10c-.4-24.2,17.22-46.33,41-51.48l1.15-.24a51.86,51.86,0,0,1,20.62,101.65h0c-.92.2-1.84.37-2.76.52a52,52,0,0,1-40.93-11.07,7.38,7.38,0,0,0-6.19-1.47,7.8,7.8,0,0,0-2,.77l-46.21,26a1.11,1.11,0,0,0-.49,1.28,51.57,51.57,0,0,1,1.58,8.5,52.56,52.56,0,0,1-1.53,19,1.11,1.11,0,0,0,.51,1.31l87.23,45.56a7.36,7.36,0,0,0,4.94.67,7.21,7.21,0,0,0,2.83-1.32,37,37,0,0,1,14.89-6.94,37.51,37.51,0,1,1,15.89,73.32ZM387.3,324.21a16.2,16.2,0,0,0-12.56,15.57A16,16,0,0,0,394,355.46h0a16,16,0,0,0-6.5-31.28l-.72-2.57ZM200.13,351.32a10.25,10.25,0,0,0-4.1,17.93,10.54,10.54,0,0,0,8.68,2.08,10.37,10.37,0,0,0,8.07-9.71,10.29,10.29,0,0,0-12.5-10.34l-.75-2.56ZM217.3,232.19a18.47,18.47,0,0,0,7.31,36.21l.55-.11a18.7,18.7,0,0,0,14.56-18.41,18.46,18.46,0,0,0-21.83-17.8ZM89.12,254.25a15.66,15.66,0,1,0,.17,0l-.74-2.57ZM353.45,140.07a31.34,31.34,0,1,0,.2,0l-.76-2.56Z"/><path class="cls-4" d="M398.88,377.73a39.33,39.33,0,0,1-6.71.84,38.76,38.76,0,0,1-40.1-42.1,6,6,0,0,0-3.21-5.84l-86.52-45.19a53.77,53.77,0,0,1-35.62,18.66l-6.14,29.52a33,33,0,0,1,6.34,50,33.06,33.06,0,1,1-30.68-54.77l5.59-28.21a53.58,53.58,0,0,1-31.46-31.9l-46.64,6.33A32.15,32.15,0,0,1,99,300a31.66,31.66,0,0,1-3.51.56A32.35,32.35,0,0,1,85,236.85l.68-.14a32.42,32.42,0,0,1,36.05,18.5l45.37-6.36a53.92,53.92,0,0,1,42.61-51.53,55.74,55.74,0,0,1,6-.95,53.85,53.85,0,0,1,44.35,16.23l44.93-25.2a6.1,6.1,0,0,0,2.95-6.63,54.06,54.06,0,0,1-1.16-10.29c-.42-24.79,17.64-47.47,42-52.74l1.16-.24a53.13,53.13,0,0,1,21.15,104.13c-.94.21-1.88.38-2.83.53a53.2,53.2,0,0,1-41.93-11.34,6.18,6.18,0,0,0-6.79-.57l-46.22,26a39.42,39.42,0,0,1,1.73,8.54,53.54,53.54,0,0,1-1.57,19.44l87.11,45.41a6.05,6.05,0,0,0,6.41-.53,38.77,38.77,0,1,1,31.82,68.64ZM261.82,282.87a2.17,2.17,0,0,1,1.46.19L350,328.38a8.53,8.53,0,0,1,4.56,8.31,36.24,36.24,0,1,0,71.84-2.91,36.21,36.21,0,0,0-57.83-22.67,8.65,8.65,0,0,1-9.14.77l-87.22-45.57a2.36,2.36,0,0,1-1.16-2.76A50.94,50.94,0,0,0,272.58,245a49.61,49.61,0,0,0-1.54-8.3,2.4,2.4,0,0,1,1.09-2.72l46.22-26a8.77,8.77,0,0,1,9.65.82A50.56,50.56,0,1,0,350.49,120l-1.12.24c-23.18,5-40.37,26.61-40,50.21a51.44,51.44,0,0,0,1.11,9.8,8.62,8.62,0,0,1-4.2,9.37l-45.67,25.56a2.41,2.41,0,0,1-2.27-.74A51.35,51.35,0,0,0,216,198.9a53,53,0,0,0-5.75.91,51.37,51.37,0,0,0-40.61,49.29,2.35,2.35,0,0,1-1.92,2.23L120.19,258l-.38-.91A29.87,29.87,0,0,0,86.23,239.2l-.66.14a29.81,29.81,0,0,0,9.69,58.71,31.75,31.75,0,0,0,3.22-.52,29.51,29.51,0,0,0,22.9-23.82l.15-.93,48.66-6.6a2.3,2.3,0,0,1,2.49,1.44,51.69,51.69,0,0,0,30.09,30.78,2.38,2.38,0,0,1,1.55,2.73L198.4,331l-.87.15a30.51,30.51,0,1,0,35.36,27,30.28,30.28,0,0,0-14.4-22.9l-.76-.47,6.5-31.3a2.46,2.46,0,0,1,2-1.94,54.15,54.15,0,0,0,6-1,51,51,0,0,0,28.24-17A2.36,2.36,0,0,1,261.82,282.87ZM394.23,356.7a17.25,17.25,0,0,1-20.76-16.92,17.51,17.51,0,0,1,12.33-16.49l-.3-1.41,2.46-.62.42,1.47A17.27,17.27,0,0,1,408,339.85,17.38,17.38,0,0,1,394.23,356.7Zm-6.66-31.24A14.89,14.89,0,0,0,376,339.78a14.68,14.68,0,1,0,11.71-14.36ZM205,372.57a11.81,11.81,0,0,1-9.77-2.34,11.53,11.53,0,0,1-4.26-9.29,11.66,11.66,0,0,1,7.65-10.51l-.33-1.42,2.46-.65.44,1.49a11.45,11.45,0,0,1,8.61,2.52,11.52,11.52,0,0,1-4.8,20.2Zm-4.59-20a9,9,0,0,0-3.58,15.7,9.23,9.23,0,0,0,7.62,1.82,9.13,9.13,0,0,0,7.06-8.49,9,9,0,0,0-11-9.07Zm25-83-.56.11A19.74,19.74,0,0,1,217,231l.61-.12a19.74,19.74,0,0,1,7.78,38.7Zm-7.86-36.09a17.19,17.19,0,0,0,6.83,33.7l.52-.1a17.2,17.2,0,0,0-6.8-33.71ZM95.45,283.82a15.76,15.76,0,0,1-7.84-30.49l-.3-1.41,2.46-.62.43,1.48A15.77,15.77,0,0,1,108,268.43,15.88,15.88,0,0,1,95.45,283.82ZM89.38,255.5a12.66,12.66,0,1,0,.17,0Zm277.2-54.91A31.6,31.6,0,0,1,352,139.12l-.3-1.38,2.46-.63.43,1.46a31.59,31.59,0,0,1,12,62Zm-12.86-59.28a29.39,29.39,0,1,0,.19,0Z"/><path class="cls-4" d="M366.86,202l.21-.05a33,33,0,0,0-14-64.49l-.21.05a33,33,0,0,0,14,64.49M95.72,285.19h0l.21-.05a17.15,17.15,0,0,0-7.17-33.54l-.21.05a17.15,17.15,0,0,0,7.17,33.54m130-14.3a21.13,21.13,0,0,0-8.31-41.44l-.68.14A21.14,21.14,0,0,0,225.09,271l.63-.13m-20.44,103,.22-.05h0a12.93,12.93,0,0,0-5.78-25.2l-.19,0a12.92,12.92,0,0,0-5.18,22.59,13.18,13.18,0,0,0,10.93,2.62M394.67,358a18.64,18.64,0,0,0-7.74-36.46l-.19,0a18.85,18.85,0,0,0-14.67,18.18,18.66,18.66,0,0,0,22.42,18.28l.18,0M224.59,265.69l-.46.09a15.81,15.81,0,0,1-6.27-31l.44-.09a15.81,15.81,0,0,1,6.29,31ZM205.28,373.93l-1.13-5.21a7.86,7.86,0,0,1-6.43-1.54,7.62,7.62,0,0,1-2.81-6.14,7.61,7.61,0,1,1,9.39,7.65l1,5.24Z"/><path class="cls-5" d="M363.61,190.85a21,21,0,1,1-8.92-41.06,21.85,21.85,0,0,1,4-.47,21,21,0,0,1,4.89,41.53Z"/><path class="cls-4" d="M364.42,194.58h0a24.78,24.78,0,0,1-29.69-19.75,24.75,24.75,0,0,1,19.15-28.77,26,26,0,0,1,4.76-.56,25,25,0,0,1,24.93,20.32A24.74,24.74,0,0,1,364.42,194.58Zm-8.92-41.06a17.2,17.2,0,0,0,4,34,17.52,17.52,0,0,0,3.32-.4,17.19,17.19,0,0,0-4-34A18.25,18.25,0,0,0,355.5,153.52Z"/><path class="cls-5" d="M355.17,146.19a22.58,22.58,0,0,1,4.47-.53A23.2,23.2,0,0,1,365,191.52a22.69,22.69,0,0,1-4.48.53,23.2,23.2,0,0,1-5.38-45.86"/><path class="cls-4" d="M365.84,195.25a26.68,26.68,0,0,1-5.21.61,27,27,0,1,1,5.21-.61ZM356,149.91a19.45,19.45,0,1,0,3.75-.43A19.32,19.32,0,0,0,356,149.91Z"/></svg>