<svg id="Layer_1" data-name="Layer 1" xmlns="http://www.w3.org/2000/svg" xmlns:xlink="http://www.w3.org/1999/xlink" viewBox="0 0 512 512"><defs><style>.cls-1{fill:none;}.cls-2{clip-path:url(#clip-path);}.cls-3{fill:#39a935;}.cls-4{fill:#fff;}.cls-5{fill:#3faa35;}</style><clipPath id="clip-path"><rect class="cls-1" x="4.35" y="4.35" width="502.65" height="502.65" rx="121.88" ry="121.88"/></clipPath></defs><title>logo_Service_web</title><g class="cls-2"><rect class="cls-3" x="4.35" y="4.35" width="502.65" height="502.65"/></g><path class="cls-4" d="M317.83,404.81l-.56.11q-11.07,2-21.74,3c-64.09,6.51-122.42-9.34-173.39-47.11C83.3,332.07,68.05,294.68,75.53,246.54,88.81,161.07,145.2,117.65,195.17,112.6a122.16,122.16,0,0,1,12.7-.61c13.46.06,27.12-.57,40.33-1.19,14.6-.67,29.62-1.37,44.66-1.19,76.59,1,116.92,42.77,130.78,135.61h0C437.09,335.31,405.49,383,318,404.77Zm-131.21-276c-41.61,9-85.37,48.06-96.54,120-6.56,42.22,6.8,75,40.83,100.22,47.92,35.52,102.81,50.43,163.13,44.29,6.75-.68,13.65-1.64,20.51-2.85,80.38-20,106.92-60.1,94.54-143.06-12.93-86.55-46.65-122.21-116.4-123.07-14.62-.18-29.42.51-43.73,1.17-13.47.63-27.32,1.27-41.16,1.21a106,106,0,0,0-11.14.53A91,91,0,0,0,186.62,128.84ZM416.37,246.31h0Z"/><path class="cls-4" d="M320,266.21c8-43.41-11-79.71-50.77-97.11a86.55,86.55,0,0,0-11.43-3.81c-1.76-.49-3.57-1-5.45-1.59l-.69-.16a101.3,101.3,0,0,0-25.52-.73c-24.18,2.45-45.79,14.25-64.48,35.25-15.12,17-22.42,34.68-21.69,52.62.73,18.43,9.89,36.38,27.22,53.37,19,18.59,40.59,31.25,64.24,37.62a59.65,59.65,0,0,0,21.64,1.86,60.46,60.46,0,0,0,28.39-10.75C300.64,319.56,314.69,295.3,320,266.21Z"/><path class="cls-3" d="M420.62,385.71a41.43,41.43,0,0,1-50-44.07,8,8,0,0,0-4.29-7.82l-95.82-50.05a1,1,0,0,0-.67-.09,1.28,1.28,0,0,0-.69.43,58.09,58.09,0,0,1-38.52,20.25h-.06a1.31,1.31,0,0,0-1.17,1.05l-7,33.61a35.11,35.11,0,0,1-11,64.24,35.11,35.11,0,0,1-35.8-55,35.18,35.18,0,0,1,21-13.7c.55-.12,1.11-.23,1.67-.32l6.36-32.09a1.25,1.25,0,0,0-.85-1.42,58.46,58.46,0,0,1-34-34.83,1.16,1.16,0,0,0-1.24-.68l-52.71,7.15A34.2,34.2,0,0,1,89.4,299.88a35.14,35.14,0,0,1-3.72.59,34.33,34.33,0,0,1-11.13-67.62l.74-.15A34.42,34.42,0,0,1,114,253.3l51.36-7.2a1.18,1.18,0,0,0,1-1.12,58.15,58.15,0,0,1,46-55.79,60.28,60.28,0,0,1,6.5-1,58.06,58.06,0,0,1,47.9,17.58,1.31,1.31,0,0,0,1.21.41L318,178.07a8.14,8.14,0,0,0,3.95-8.83,57.8,57.8,0,0,1-1.25-11.1c-.45-26.72,19-51.17,45.27-56.86l1.27-.26A57.29,57.29,0,0,1,390,213.3h0c-1,.21-2,.41-3.05.57a57.4,57.4,0,0,1-45.2-12.23,8.14,8.14,0,0,0-6.84-1.62,8.22,8.22,0,0,0-2.24.85l-51,28.69a1.25,1.25,0,0,0-.54,1.42,57,57,0,0,1,1.75,9.38,57.88,57.88,0,0,1-1.69,21,1.21,1.21,0,0,0,.57,1.45L378,313.1a8.05,8.05,0,0,0,5.45.74,7.76,7.76,0,0,0,3.13-1.46,41.17,41.17,0,0,1,23.65-8.57,41.43,41.43,0,0,1,10.35,81.9ZM408.13,328a17.89,17.89,0,0,0-13.88,17.2,17.66,17.66,0,0,0,21.23,17.32h0a17.65,17.65,0,0,0-7.18-34.56l-.8-2.83ZM201.38,357.91a11.32,11.32,0,0,0-4.53,19.8,11.59,11.59,0,0,0,9.6,2.3,11.44,11.44,0,0,0,8.91-10.72,11.38,11.38,0,0,0-13.81-11.42l-.83-2.83Zm19-131.58a20.4,20.4,0,0,0,8.09,40l.59-.12a20.4,20.4,0,0,0-8-40ZM78.76,250.7a16.44,16.44,0,1,0,.2,0l-.82-2.84Zm292-126.12a32.13,32.13,0,1,0,.21,0l-.84-2.83Z"/><path class="cls-4" d="M420.91,387.08a42.8,42.8,0,0,1-51.7-45.57,6.6,6.6,0,0,0-3.55-6.44L270.1,285.14a59.19,59.19,0,0,1-32.64,19.56,60.31,60.31,0,0,1-6.71,1.06L224,338.36a36.48,36.48,0,0,1,7,55.21,36.52,36.52,0,1,1-33.88-60.5l6.17-31.16a59.17,59.17,0,0,1-34.75-35.24l-51.52,7A35.51,35.51,0,0,1,89.7,301.25a36.24,36.24,0,0,1-3.87.62,35.74,35.74,0,0,1-11.58-70.39l.76-.16a35.81,35.81,0,0,1,39.82,20.43l50.11-7A59.54,59.54,0,0,1,212,187.82a62.46,62.46,0,0,1,6.66-1.06,59.47,59.47,0,0,1,49,17.93l49.63-27.84a6.72,6.72,0,0,0,3.26-7.32,59.55,59.55,0,0,1-1.28-11.37c-.46-27.38,19.48-52.42,46.39-58.25l1.27-.27a58.69,58.69,0,0,1,23.36,115c-1,.22-2.08.42-3.12.58a58.81,58.81,0,0,1-46.32-12.52,6.81,6.81,0,0,0-7.5-.64l-51,28.7a44.28,44.28,0,0,1,1.92,9.43,59.37,59.37,0,0,1-1.74,21.48l96.22,50.16a6.66,6.66,0,0,0,7.07-.59,42.83,42.83,0,1,1,35.15,75.81ZM269.53,282.31a2.34,2.34,0,0,1,1.6.21L367,332.58a9.4,9.4,0,0,1,5,9.18,40,40,0,0,0,70.92,28.7,40,40,0,0,0-55.44-57,9.53,9.53,0,0,1-10.09.85L281,264a2.62,2.62,0,0,1-1.28-3,56.76,56.76,0,0,0-.05-29.62,2.65,2.65,0,0,1,1.2-3l51-28.69a9.68,9.68,0,0,1,10.66.9,55.85,55.85,0,1,0,24.85-98.15l-1.24.26c-25.61,5.54-44.6,29.39-44.16,55.46a56.3,56.3,0,0,0,1.22,10.82,9.55,9.55,0,0,1-4.63,10.36l-50.45,28.23a2.68,2.68,0,0,1-2.51-.82A56.67,56.67,0,0,0,219,189.56a59,59,0,0,0-6.34,1A56.75,56.75,0,0,0,167.74,245a2.57,2.57,0,0,1-2.11,2.46l-52.55,7.37-.42-1a33,33,0,0,0-37.08-19.76l-.74.16a32.92,32.92,0,0,0,10.7,64.84,30.67,30.67,0,0,0,3.56-.57,32.62,32.62,0,0,0,25.3-26.31l.17-1,53.74-7.29a2.54,2.54,0,0,1,2.75,1.59,57.09,57.09,0,0,0,33.23,34,2.64,2.64,0,0,1,1.72,3l-6.54,33-1,.16a33.7,33.7,0,1,0,39.06,29.86,33.44,33.44,0,0,0-15.91-25.3l-.84-.52L228,305.13a2.72,2.72,0,0,1,2.25-2.13,62.34,62.34,0,0,0,6.62-1.05,56.38,56.38,0,0,0,31.19-18.75A2.6,2.6,0,0,1,269.53,282.31Zm146.25,81.55a19.07,19.07,0,0,1-22.94-18.69A19.35,19.35,0,0,1,406.47,327l-.34-1.56,2.73-.67.45,1.62a19.06,19.06,0,0,1,21.62,18.91A19.2,19.2,0,0,1,415.78,363.86Zm-7.36-34.51a16.47,16.47,0,0,0-12.77,15.82,16.27,16.27,0,0,0,19.55,15.94,16.37,16.37,0,0,0,12.92-15.86,16.26,16.26,0,0,0-19.53-15.94Zm-201.66,52A13.05,13.05,0,0,1,196,378.8a12.73,12.73,0,0,1,3.75-21.86l-.36-1.58,2.72-.71.48,1.64a12.74,12.74,0,0,1,4.21,25.09Zm-5.07-22.1a9.91,9.91,0,0,0-3.95,17.34A9.93,9.93,0,0,0,214,369.26a10,10,0,0,0-12.11-10Zm27.63-91.7-.62.12A21.81,21.81,0,0,1,220.05,225l.67-.14a21.81,21.81,0,0,1,8.6,42.76Zm-8.69-39.87a19,19,0,0,0,7.54,37.23l.58-.12a19,19,0,0,0-7.5-37.24ZM85.76,283.36a17.41,17.41,0,0,1-8.66-33.68l-.34-1.56,2.72-.69.48,1.64A17.41,17.41,0,0,1,99.6,266.36,17.54,17.54,0,0,1,85.76,283.36Zm-6.71-31.29a14.67,14.67,0,1,0,.19,0Zm306.19-60.64a34.91,34.91,0,0,1-16.17-67.9l-.33-1.53,2.72-.7.48,1.61a34.91,34.91,0,0,1,13.3,68.52ZM371,126a31.42,31.42,0,1,0,.22,0Z"/><path class="cls-4" d="M385.55,192.93l.23-.05a36.44,36.44,0,0,0-15.44-71.23l-.23,0a36.44,36.44,0,0,0,15.44,71.23M86.05,284.87h0l.24-.06a18.94,18.94,0,0,0-7.92-37l-.23,0a18.94,18.94,0,0,0,7.91,37.05m143.6-15.79a23.64,23.64,0,0,0,18.4-23.28,23.33,23.33,0,0,0-27.58-22.5l-.75.15A23.35,23.35,0,0,0,229,269.22l.7-.14M207.07,382.89l.24-.05h0a14.27,14.27,0,0,0,5.71-25,14.22,14.22,0,0,0-12.1-2.88l-.21,0A14.26,14.26,0,0,0,195,380a14.57,14.57,0,0,0,12.07,2.89m209.19-17.56a20.59,20.59,0,0,0-8.55-40.28l-.21,0a20.84,20.84,0,0,0-16.2,20.09,20.61,20.61,0,0,0,24.76,20.19l.2,0m-187.86-102-.51.1A17.46,17.46,0,0,1,221,229.21l.48-.1a17.46,17.46,0,0,1,7,34.22ZM207.07,382.89l-1.25-5.75a8.73,8.73,0,0,1-7.1-1.7,8.39,8.39,0,0,1-3.1-6.79,8.4,8.4,0,0,1,13.7-6.21,8.41,8.41,0,0,1,3.09,6.79A8.51,8.51,0,0,1,206,377.1l1.08,5.79Z"/><path class="cls-5" d="M382,180.67a24.7,24.7,0,0,1-4.47.53,23.21,23.21,0,0,1-5.39-45.88,23,23,0,0,1,4.47-.53A23.21,23.21,0,0,1,382,180.67Z"/><path class="cls-4" d="M382.86,184.79h0A27.42,27.42,0,0,1,350.06,163a27.34,27.34,0,0,1,21.15-31.77,27.9,27.9,0,0,1,5.26-.62,27.42,27.42,0,0,1,6.39,54.21ZM373,139.43A19,19,0,0,0,377.4,177a19.37,19.37,0,0,0,3.66-.43,19,19,0,0,0-4.4-37.55A20.44,20.44,0,0,0,373,139.43Z"/><path class="cls-5" d="M372.63,131.33a26.59,26.59,0,0,1,4.94-.58,25.63,25.63,0,0,1,5.95,50.66,26.59,26.59,0,0,1-4.94.58,25.63,25.63,0,0,1-5.95-50.66"/><path class="cls-4" d="M384.41,185.53a29.71,29.71,0,0,1-5.74.67,29.84,29.84,0,0,1-6.93-59,30.51,30.51,0,0,1,5.74-.67,29.84,29.84,0,0,1,6.93,59Zm-10.89-50.08a21.41,21.41,0,0,0,5,42.33,22,22,0,0,0,4.14-.49,21.41,21.41,0,0,0-5-42.33A22,22,0,0,0,373.52,135.45Z"/></svg>