<svg id="Layer_1" data-name="Layer 1" xmlns="http://www.w3.org/2000/svg" xmlns:xlink="http://www.w3.org/1999/xlink" viewBox="0 0 512 512"><defs><style>.cls-1{fill:#fff;}.cls-2{clip-path:url(#clip-path);}.cls-3{fill:#39a935;}.cls-4{fill:#3faa35;}</style><clipPath id="clip-path"><path class="cls-1" d="M6.45,254.78c0,137.39,111.38,248.77,248.77,248.77S504,392.17,504,254.78,392.62,6,255.22,6,6.45,117.38,6.45,254.78"/></clipPath></defs><title>logo_Service_web</title><path class="cls-1" d="M6.45,254.78c0,137.39,111.38,248.77,248.77,248.77S504,392.17,504,254.78,392.62,6,255.22,6,6.45,117.38,6.45,254.78"/><g class="cls-2"><rect class="cls-1" x="6.45" y="6" width="497.55" height="497.55"/></g><path class="cls-3" d="M305.4,389.21l-.49.11c-6.46,1.21-12.83,2.16-19.06,2.86-56.18,6.29-107.52-7.1-152.59-39.79C98.91,327.48,85.2,294.8,91.33,252.48c10.89-75.13,60-113.74,103.8-118.62a105.86,105.86,0,0,1,11.13-.65c11.82-.07,23.8-.75,35.39-1.41,12.81-.72,26-1.47,39.19-1.44,67.22.15,103,36.49,116,117.85h0c12.61,78.94-14.7,121.1-91.31,141Zm-117.64-241c-36.43,8.28-74.49,42.95-83.64,106.14-5.39,37.12,6.63,65.78,36.73,87.6,42.37,30.74,90.68,43.33,143.56,37.41,5.92-.66,12-1.57,18-2.69,70.37-18.25,93.3-53.7,81.69-126.4-12.12-75.85-42-106.84-103.26-107-12.83,0-25.81.71-38.37,1.42-11.82.67-24,1.35-36.11,1.43a93.67,93.67,0,0,0-9.78.57A78.91,78.91,0,0,0,187.76,148.19Zm202.7,101,.05,0Z"/><path class="cls-3" d="M306.09,267.56c6.62-38.18-10.36-69.87-45.42-84.78a77.24,77.24,0,0,0-10.07-3.24c-1.55-.42-3.14-.85-4.8-1.35l-.6-.13a89.41,89.41,0,0,0-22.41-.42c-21.2,2.38-40.06,12.92-56.28,31.52-13.11,15-19.35,30.64-18.56,46.38.81,16.17,9,31.84,24.37,46.59,16.82,16.15,35.9,27.06,56.72,32.45a51.53,51.53,0,0,0,43.82-8.26C289.55,314.55,301.66,293.13,306.09,267.56Z"/><path class="cls-3" d="M395.44,371.53a37.52,37.52,0,0,1-6.28.86,36.35,36.35,0,0,1-38-39.09,7,7,0,0,0-3.84-6.82l-84.54-43.07a.86.86,0,0,0-.59-.07,1,1,0,0,0-.6.38,50.69,50.69,0,0,1-27.89,17.15,51.68,51.68,0,0,1-5.74,1h-.06a1.14,1.14,0,0,0-1,.93l-5.83,29.56A30.82,30.82,0,0,1,212,388.82a30.83,30.83,0,0,1-13.59-60.14l1.46-.29,5.3-28.23a1.09,1.09,0,0,0-.76-1.23,51.33,51.33,0,0,1-30.2-30.27,1,1,0,0,0-1.1-.58l-46.19,6.75A30,30,0,0,1,104,299.17a29.57,29.57,0,0,1-3.26.55,30.13,30.13,0,0,1-10.38-59.24l.65-.15a30.22,30.22,0,0,1,34.13,17.74l45-6.78a1,1,0,0,0,.88-1,51.05,51.05,0,0,1,39.85-49.38,53.18,53.18,0,0,1,5.69-1,51,51,0,0,1,42.2,15,1.11,1.11,0,0,0,1.06.35l43.68-25.09a7.13,7.13,0,0,0,3.38-7.79,50.76,50.76,0,0,1-1.19-9.73c-.64-23.45,16.23-45.08,39.22-50.31l1.11-.24a50.28,50.28,0,0,1,21,98.34h0c-.89.2-1.78.38-2.67.53a50.41,50.41,0,0,1-39.79-10.33,7.14,7.14,0,0,0-6-1.36,6.9,6.9,0,0,0-2,.77L272,235.74a1.07,1.07,0,0,0-.46,1.24,50.85,50.85,0,0,1,.32,26.64,1.06,1.06,0,0,0,.52,1.26l85,43.31a7.15,7.15,0,0,0,4.79.6,6.79,6.79,0,0,0,2.73-1.31,35.85,35.85,0,0,1,14.37-6.87,36.86,36.86,0,0,1,6.31-.87,36.37,36.37,0,0,1,9.82,71.79ZM384,321a15.7,15.7,0,0,0-12,15.22,15.5,15.5,0,0,0,18.79,15h0a15.49,15.49,0,0,0-6.61-30.26l-.73-2.49ZM202.78,349.1a9.93,9.93,0,0,0-3.8,17.42,10.19,10.19,0,0,0,8.44,1.93,9.93,9.93,0,0,0,4-17.46,9.91,9.91,0,0,0-8.47-1.92l-.75-2.48Zm15.46-115.65a17.9,17.9,0,0,0,7.45,35l.53-.11a17.9,17.9,0,0,0-7.41-35ZM94.2,256.1a13.72,13.72,0,1,0,.17,0l-.75-2.48ZM349.32,142.8a27.47,27.47,0,1,0,.19-.05l-.76-2.47Z"/><path class="cls-1" d="M395.71,372.73a37.58,37.58,0,0,1-45.79-39.52,5.8,5.8,0,0,0-3.17-5.63l-84.32-43A51.92,51.92,0,0,1,234,302.07a50.83,50.83,0,0,1-5.88,1l-5.66,28.68a31.82,31.82,0,0,1,14.63,23.44,32.06,32.06,0,1,1-38.28-27.84l5.14-27.41a51.92,51.92,0,0,1-30.81-30.61L128,275.92a31.14,31.14,0,0,1-23.7,24.45,32.43,32.43,0,0,1-3.39.58,31.37,31.37,0,0,1-10.79-61.68l.66-.14a31.44,31.44,0,0,1,35.13,17.58l43.92-6.61A52.46,52.46,0,0,1,259.57,214l43.3-24.88a5.9,5.9,0,0,0,2.8-6.45,52.28,52.28,0,0,1-1.23-10c-.64-24,16.63-46.19,40.19-51.55l1.12-.24a51.51,51.51,0,0,1,21.53,100.74c-.9.21-1.82.39-2.74.54a51.58,51.58,0,0,1-40.76-10.58,6,6,0,0,0-6.58-.49L272.65,236.8a38.89,38.89,0,0,1,1.76,8.27,51.66,51.66,0,0,1-1.33,18.86L358,307.09a5.84,5.84,0,0,0,6.2-.58,37.59,37.59,0,1,1,31.53,66.22Zm-133.8-90.59a2.15,2.15,0,0,1,1.41.16l84.55,43.08a8.28,8.28,0,0,1,4.51,8,35.71,35.71,0,0,0,.56,9.49,35.16,35.16,0,1,0,12.76-34.43,8.34,8.34,0,0,1-8.84.84l-85-43.31a2.28,2.28,0,0,1-1.15-2.66,49.73,49.73,0,0,0,1.26-18,48.41,48.41,0,0,0-1.57-8,2.31,2.31,0,0,1,1-2.65L316,209a8.49,8.49,0,0,1,9.37.7,49,49,0,1,0,20.92-86.37l-1.08.24c-22.43,5.1-38.88,26.19-38.26,49.07a49.86,49.86,0,0,0,1.17,9.49,8.37,8.37,0,0,1-4,9.13l-44,25.22a2.32,2.32,0,0,1-2.21-.69,49.74,49.74,0,0,0-41.18-14.63,52.41,52.41,0,0,0-5.56.93,49.83,49.83,0,0,0-38.89,48.19,2.27,2.27,0,0,1-1.83,2.18l-46.06,6.94-.37-.88a29,29,0,0,0-32.73-17l-.64.14a28.9,28.9,0,0,0,10,56.82,29.44,29.44,0,0,0,3.12-.53,28.65,28.65,0,0,0,22-23.33l.13-.9,47.1-6.88a2.25,2.25,0,0,1,2.44,1.37,50.05,50.05,0,0,0,29.47,29.54,2.32,2.32,0,0,1,1.53,2.64l-5.44,29-.84.15a29.59,29.59,0,1,0,34.54,25.86,29.34,29.34,0,0,0-14.18-22.06l-.75-.45,6-30.41a2.37,2.37,0,0,1,2-1.89,55.16,55.16,0,0,0,5.8-1,49.49,49.49,0,0,0,27.21-16.74A2.25,2.25,0,0,1,261.91,282.14ZM391,352.4a16.73,16.73,0,0,1-20.29-16.2,17,17,0,0,1,11.79-16.11l-.31-1.37,2.39-.61.41,1.42a16.73,16.73,0,0,1,19.15,16.4A16.85,16.85,0,0,1,391,352.4Zm-6.76-30.23a14.47,14.47,0,0,0-11.07,14,14.24,14.24,0,1,0,11.21-14ZM207.71,369.65a11.46,11.46,0,0,1-9.5-2.17,11.15,11.15,0,0,1-4.21-9,11.28,11.28,0,0,1,7.3-10.26l-.33-1.38,2.38-.65.44,1.43a11.18,11.18,0,0,1,3.92,22Zm-4.65-19.35a8.7,8.7,0,0,0-3.31,15.26A8.72,8.72,0,0,0,213.91,359a8.74,8.74,0,0,0-10.71-8.68Zm23.43-80.73-.55.11a19.14,19.14,0,0,1-8-37.43l.58-.13a19.14,19.14,0,0,1,7.94,37.45Zm-8-34.92a16.67,16.67,0,0,0,7,32.61l.5-.1a16.9,16.9,0,0,0,13-16.75A16.67,16.67,0,0,0,219,234.54Zm-117.87,50a15.28,15.28,0,0,1-7.9-29.48l-.31-1.36,2.38-.63.43,1.43a15.27,15.27,0,0,1,5.4,30Zm-6.16-27.39a12.81,12.81,0,0,0,5.63,25,12.81,12.81,0,0,0-5.47-25Zm268.18-56a30.64,30.64,0,0,1-14.8-59.45l-.3-1.34,2.38-.64.43,1.42a30.63,30.63,0,0,1,12.29,60ZM349.59,144a29.14,29.14,0,1,0,.19,0Z"/><path class="cls-1" d="M362.94,202.66l.2,0A32,32,0,0,0,349,140.23l-.2.05a32,32,0,0,0,14.19,62.38M100.9,286h0l.2,0a16.62,16.62,0,0,0-7.29-32.44l-.2,0A16.63,16.63,0,0,0,100.9,286m125.89-15.15a20.49,20.49,0,0,0-8.47-40.09l-.65.14A20.49,20.49,0,0,0,226.18,271l.61-.13M208,371l.21-.05h0a12.53,12.53,0,0,0-5.86-24.37l-.18,0a12.52,12.52,0,0,0-4.8,22A12.76,12.76,0,0,0,208,371m183.44-17.29a18.07,18.07,0,0,0-7.86-35.27l-.19,0a18.28,18.28,0,0,0-14,17.77,18.1,18.1,0,0,0,21.92,17.5l.17,0M208,371l-1.14-5a7.66,7.66,0,0,1-6.25-1.42,7.36,7.36,0,0,1-2.78-5.94,7.36,7.36,0,0,1,12-5.56,7.37,7.37,0,0,1,2.78,5.92,7.48,7.48,0,0,1-5.57,7l1,5.07Z"/><path class="cls-4" d="M359.67,191.92a21.25,21.25,0,0,1-3.91.51A20.51,20.51,0,0,1,335.15,176a20.3,20.3,0,0,1,15.46-23.76,20.38,20.38,0,0,1,24.53,15.95,20.31,20.31,0,0,1-15.46,23.76Z"/><path class="cls-1" d="M360.5,195.53h0a25.18,25.18,0,0,1-4.61.6,24.24,24.24,0,0,1-24.36-19.45,24,24,0,0,1,18.27-28.08,24.54,24.54,0,0,1,4.62-.59,24.07,24.07,0,0,1,6.09,47.52Zm-9.07-39.71a16.67,16.67,0,0,0,4.21,32.91,18.07,18.07,0,0,0,3.21-.41,16.67,16.67,0,0,0-4.2-32.92A17.31,17.31,0,0,0,351.43,155.82Z"/><path class="cls-4" d="M351,148.71a22.46,22.46,0,0,1,27.08,17.61,22.52,22.52,0,0,1-17.07,26.24,21.92,21.92,0,0,1-4.33.55,22.49,22.49,0,0,1-5.68-44.4"/><path class="cls-1" d="M361.87,196.17a26.21,26.21,0,0,1-31.53-20.52,26.1,26.1,0,0,1,19.88-30.55,27.26,27.26,0,0,1,5-.65,26.36,26.36,0,0,1,26.49,21.17A26.09,26.09,0,0,1,361.87,196.17Zm-10-43.86a18.8,18.8,0,0,0,4.74,37.11,19.09,19.09,0,0,0,3.63-.47,18.79,18.79,0,0,0-4.74-37.1A19.08,19.08,0,0,0,351.86,152.31Z"/><path class="cls-4" d="M203.8,351.78a6.46,6.46,0,0,1,1.33-.17,6.89,6.89,0,0,1,1.74,13.61,6.46,6.46,0,0,1-1.33.17,6.89,6.89,0,0,1-1.74-13.61"/></svg>